<?xml version="1.0" encoding="UTF-8" standalone="no"?>
<!-- Created with Inkscape (http://www.inkscape.org/) -->

<svg
   xmlns:dc="http://purl.org/dc/elements/1.1/"
   xmlns:cc="http://creativecommons.org/ns#"
   xmlns:rdf="http://www.w3.org/1999/02/22-rdf-syntax-ns#"
   xmlns:svg="http://www.w3.org/2000/svg"
   xmlns="http://www.w3.org/2000/svg"
   xmlns:sodipodi="http://sodipodi.sourceforge.net/DTD/sodipodi-0.dtd"
   xmlns:inkscape="http://www.inkscape.org/namespaces/inkscape"
   width="210mm"
   height="297mm"
   viewBox="0 0 210 297"
   version="1.1"
   id="svg5376"
   inkscape:version="0.92.4 (unknown)"
   sodipodi:docname="drawing.svg">
  <defs
     id="defs5370" />
  <sodipodi:namedview
     id="base"
     pagecolor="#ffffff"
     bordercolor="#666666"
     borderopacity="1.0"
     inkscape:pageopacity="0.0"
     inkscape:pageshadow="2"
     inkscape:zoom="0.35"
     inkscape:cx="400"
     inkscape:cy="560"
     inkscape:document-units="mm"
     inkscape:current-layer="layer1"
     showgrid="false"
     inkscape:window-width="1920"
     inkscape:window-height="1016"
     inkscape:window-x="0"
     inkscape:window-y="27"
     inkscape:window-maximized="1" />
  <metadata
     id="metadata5373">
    <rdf:RDF>
      <cc:Work
         rdf:about="">
        <dc:format>image/svg+xml</dc:format>
        <dc:type
           rdf:resource="http://purl.org/dc/dcmitype/StillImage" />
        <dc:title></dc:title>
      </cc:Work>
    </rdf:RDF>
  </metadata>
  <g
     inkscape:label="Layer 1"
     inkscape:groupmode="layer"
     id="layer1">
    <ellipse
       style="fill:#000000;stroke-width:0.20768544"
       id="path110"
       cx="92.331795"
       cy="120.58675"
       rx="6.2304211"
       ry="6.417913" />
    <ellipse
       style="fill:#000000;stroke-width:0.20768544"
       id="path114"
       cx="120.23324"
       cy="121.23665"
       rx="6.2304201"
       ry="6.4179096" />
    <ellipse
       style="fill:#ffffff;stroke-width:0.13686457"
       id="path116"
       cx="92.196342"
       cy="120.58675"
       rx="2.9797664"
       ry="3.3308144" />
    <ellipse
       style="fill:#ffffff;stroke-width:0.13686457"
       id="path116-6"
       cx="120.23324"
       cy="121.15543"
       rx="2.9797664"
       ry="3.3308144" />
    <path
       inkscape:connector-curvature="0"
       id="path155"
       style="fill:#000080;stroke-width:0.14834674"
       d="m 104.47195,92.906119 c -1.65077,0.01511 -3.38384,0.176805 -4.21215,0.442349 -2.746285,0.880446 -4.460209,2.086488 -6.785632,4.77542 -1.978773,2.288092 -2.185281,2.834702 -2.412256,6.385652 -0.09139,1.4298 -0.247415,2.83801 -0.347266,3.12901 -0.25836,0.75301 -0.725413,0.92946 -1.820045,0.68782 -0.606898,-0.13398 -2.10082,-0.17261 -4.80849,-0.12351 -3.506316,0.0635 -4.044325,0.10949 -5.011581,0.42685 -2.839873,0.93178 -4.496009,2.5634 -5.322673,5.2436 -0.242734,0.78701 -0.70435,3.79534 -0.70435,4.58991 0,0.23918 0.578271,0.26354 6.274554,0.26354 h 6.274551 l 0.274918,-0.36535 c 0.151077,-0.20106 0.674519,-1.10145 1.163754,-2.00039 1.237938,-2.27462 1.950704,-2.82558 4.097425,-3.16829 1.715085,-0.27377 2.622029,-0.12349 3.937744,0.65319 1.289986,0.76147 2.711249,2.42492 3.372921,3.94653 l 0.406175,0.9338 h 7.384051 l 7.38404,5.3e-4 0.42685,-0.85318 c 1.18762,-2.37343 3.08932,-3.73901 5.51852,-3.96203 2.35301,-0.21602 3.83758,0.53862 5.87716,2.98638 l 1.39785,1.67741 4.47983,0.10232 4.47932,0.10181 -0.0754,-1.93528 c -0.21287,-5.46926 -2.45379,-9.63348 -7.0745,-13.14597 -1.15406,-0.87726 -6.24245,-4.270869 -7.88376,-5.25808 -4.7278,-2.843646 -9.70825,-4.815723 -13.62191,-5.393468 -0.71821,-0.106026 -1.67914,-0.149627 -2.6696,-0.140559 z m -3.56878,3.878832 c 0.69137,6.8e-5 1.45656,0.03853 2.30891,0.111104 l 1.22111,0.10387 -0.0687,4.876705 -0.0692,4.8767 0.44338,-0.10645 c 0.24368,-0.0585 0.61834,-0.10645 0.83251,-0.10645 h 0.38912 v -4.8178 -4.817789 l 2.54248,0.112655 c 2.92541,0.129238 4.18139,0.390485 4.95474,1.030943 0.96525,0.799362 1.85256,1.963491 2.2102,2.900601 0.30607,0.80199 0.34084,1.07148 0.2868,2.19211 -0.0512,1.06053 -0.14792,1.48702 -0.56998,2.51148 -0.27963,0.67871 -0.57894,1.26529 -0.6656,1.30379 -0.22952,0.1019 -21.101716,0.1687 -21.153746,0.0677 -0.02413,-0.0469 0.09998,-1.56437 0.275952,-3.3724 l 0.320387,-3.28766 0.838711,-1.123961 c 1.298316,-1.739564 2.90708,-2.455445 5.902996,-2.455148 z" />
    <path
       style="fill:#000080;stroke-width:0.1793104"
       d="m 99.98548,122.20094 c 0.17566,-0.52236 0.04873,-1.36041 -0.315789,-2.08522 -0.1345,-0.26744 0.246597,-0.28435 6.412169,-0.28435 h 6.55517 l -0.14521,0.44682 c -0.2045,0.62926 -0.12392,1.28332 0.22986,1.86561 0.16697,0.27479 0.30358,0.52497 0.30358,0.55592 0,0.0309 -2.97595,0.0563 -6.61322,0.0563 h -6.613216 z"
       id="path157"
       inkscape:connector-curvature="0" />
    <path
       style="fill:#000080;stroke-width:0.14834674"
       d="m 129.64951,123.32755 c -1.19191,-0.0854 -2.18188,-0.17052 -2.19994,-0.18894 -0.0181,-0.0184 -0.0698,-0.76857 -0.11502,-1.66697 l -0.0822,-1.63344 0.52136,-0.0985 c 1.21832,-0.23006 6.65307,-0.30868 7.77897,-0.11255 2.66736,0.46466 4.0714,1.50418 3.6237,2.68289 -0.18875,0.49696 -0.83672,0.87366 -1.84283,1.07135 -0.9407,0.18483 -4.72605,0.15828 -7.68405,-0.0539 z"
       id="path159"
       inkscape:connector-curvature="0" />
    <path
       style="fill:#ffffff;stroke-width:0.20768544"
       id="path165"
       d="m 101.14054,110.43976 c 0.39409,-0.0483 0.78777,-0.10059 1.18385,-0.11638 0.37443,-0.0118 0.74905,-0.0147 1.1236,-0.0171 0.0493,-0.0101 0.0984,-0.0194 0.14764,-0.0291 0,0 -1.61416,1.43817 -1.61416,1.43817 v 0 c -0.0535,0.003 -0.10707,0.007 -0.16061,0.0101 -0.37111,-4.5e-4 -0.74238,-2.2e-4 -1.11315,0.0215 -0.3949,0.0297 -0.789046,0.0728 -1.18156,0.13314 0,0 1.61439,-1.44005 1.61439,-1.44005 z"
       inkscape:connector-curvature="0" />
    <path
       style="fill:#ffffff;stroke-width:0.20768544"
       id="path165-5"
       d="m 108.70649,110.21555 c 0.39409,-0.0483 0.78777,-0.10059 1.18385,-0.11637 0.37443,-0.0118 0.74905,-0.0147 1.12359,-0.0171 0.0493,-0.0101 0.0984,-0.0194 0.14764,-0.0291 0,0 -1.61415,1.43818 -1.61415,1.43818 v 0 c -0.0535,0.003 -0.10708,0.007 -0.16061,0.0101 -0.37111,-4.5e-4 -0.74239,-2.3e-4 -1.11316,0.0215 -0.39489,0.0297 -0.78904,0.0728 -1.18155,0.13314 0,0 1.61439,-1.44005 1.61439,-1.44005 z"
       inkscape:connector-curvature="0" />
    <path
       style="fill:#000080;fill-opacity:1;stroke-width:0.16619007"
       d="m 72.799858,122.84908 c -3.071489,-0.71181 -2.306377,-2.56063 1.432223,-3.46083 0.919233,-0.22133 1.964546,-0.27778 5.228599,-0.28233 2.243816,-0.003 4.595994,0.0549 5.227075,0.1291 l 1.147403,0.13478 v 1.66609 1.66608 l -3.272232,0.19147 c -4.15023,0.24284 -8.611263,0.22257 -9.763068,-0.0444 z"
       id="path184"
       inkscape:connector-curvature="0" />
  </g>
</svg>
